<svg width="16" height="16" viewBox="0 0 16 16" fill="none" xmlns="http://www.w3.org/2000/svg">
<path fill-rule="evenodd" clip-rule="evenodd" d="M3.33329 6.66633C3.33329 6.51566 3.38395 6.36433 3.48795 6.23966C3.72328 5.957 4.14395 5.919 4.42662 6.15433L8.00728 9.13833L11.582 6.26166C11.8686 6.031 12.2886 6.07633 12.5193 6.363C12.75 6.65033 12.7046 7.06966 12.418 7.301L8.41795 10.5197C8.17062 10.7183 7.81729 10.7157 7.57329 10.5123L3.57329 7.179C3.41529 7.047 3.33329 6.85766 3.33329 6.66633Z" fill="white" fill-opacity="0.6"/>
<mask id="mask0_1204_24105" style="mask-type:luminance" maskUnits="userSpaceOnUse" x="3" y="6" width="10" height="5">
<path fill-rule="evenodd" clip-rule="evenodd" d="M3.33329 6.66633C3.33329 6.51566 3.38395 6.36433 3.48795 6.23966C3.72328 5.957 4.14395 5.919 4.42662 6.15433L8.00728 9.13833L11.582 6.26166C11.8686 6.031 12.2886 6.07633 12.5193 6.363C12.75 6.65033 12.7046 7.06966 12.418 7.301L8.41795 10.5197C8.17062 10.7183 7.81729 10.7157 7.57329 10.5123L3.57329 7.179C3.41529 7.047 3.33329 6.85766 3.33329 6.66633Z" fill="white"/>
</mask>
<g mask="url(#mask0_1204_24105)">
</g>
</svg>
