<svg width="20" height="20" viewBox="0 0 20 20" fill="none" xmlns="http://www.w3.org/2000/svg">
<path fill-rule="evenodd" clip-rule="evenodd" d="M6.66675 5H10.0001C10.7743 5 11.1613 5 11.4852 5.0513C12.9126 5.27737 14.0935 6.2187 14.6525 7.5H15.8334C16.7539 7.5 17.5001 8.24619 17.5001 9.16667V10.8333C17.5001 11.7538 16.7539 12.5 15.8334 12.5H14.6525C14.0935 13.7813 12.9126 14.7226 11.4852 14.9487C11.1613 15 10.7743 15 10.0001 15H6.66675C5.89258 15 5.50549 15 5.1816 14.9487C3.39872 14.6663 2.00043 13.268 1.71805 11.4851C1.66675 11.1613 1.66675 10.7742 1.66675 10C1.66675 9.22583 1.66675 8.83874 1.71805 8.51486C2.00043 6.73197 3.39872 5.33368 5.1816 5.0513C5.50549 5 5.89258 5 6.66675 5ZM5.5591 8.05382C5.40473 7.74509 5.02931 7.61995 4.72057 7.77432C4.41184 7.92869 4.2867 8.30411 4.44106 8.61284L4.52904 8.7888C4.91028 9.55127 4.91028 10.4487 4.52904 11.2112L4.44106 11.3872C4.2867 11.6959 4.41184 12.0713 4.72057 12.2257C5.02931 12.3801 5.40473 12.2549 5.5591 11.9462L5.64708 11.7702C6.20427 10.6558 6.20427 9.34416 5.64708 8.22978L5.5591 8.05382ZM8.89243 8.05383C8.73806 7.74509 8.36264 7.61995 8.05391 7.77432C7.74517 7.92868 7.62003 8.3041 7.7744 8.61284L7.86237 8.7888C8.24361 9.55127 8.24361 10.4487 7.86237 11.2112L7.7744 11.3872C7.62003 11.6959 7.74517 12.0713 8.05391 12.2257C8.36264 12.3801 8.73806 12.2549 8.89243 11.9462L8.98041 11.7702C9.5376 10.6558 9.5376 9.34416 8.98041 8.22978L8.89243 8.05383Z" fill="url(#paint0_linear_1204_24087)"/>
<defs>
<linearGradient id="paint0_linear_1204_24087" x1="-6.24992" y1="10" x2="2.77978" y2="24.297" gradientUnits="userSpaceOnUse">
<stop stop-color="#EEFF00"/>
<stop offset="0.508129" stop-color="#FFAA00"/>
<stop offset="1" stop-color="#FF5E00"/>
</linearGradient>
</defs>
</svg>
