<svg width="20" height="20" viewBox="0 0 20 20" fill="none" xmlns="http://www.w3.org/2000/svg">
<path fill-rule="evenodd" clip-rule="evenodd" d="M7.5 10.8333V10C7.5 8.62167 8.62167 7.5 10 7.5H10.8333V4.7225C10.8333 4.41583 10.5842 4.16667 10.2775 4.16667H4.7225C4.41583 4.16667 4.16667 4.41583 4.16667 4.7225V10.2775C4.16667 10.5842 4.41583 10.8333 4.7225 10.8333H7.5ZM7.5 12.5H4.7225C3.49667 12.5 2.5 11.5033 2.5 10.2775V4.7225C2.5 3.49667 3.49667 2.5 4.7225 2.5H10.2775C11.5033 2.5 12.5 3.49667 12.5 4.7225V7.5H15C16.3783 7.5 17.5 8.62167 17.5 10V15C17.5 16.3783 16.3783 17.5 15 17.5H10C8.62167 17.5 7.5 16.3783 7.5 15V12.5ZM9.1665 10.0013C9.1665 9.54214 9.54067 9.16797 9.99984 9.16797H14.9998C15.4598 9.16797 15.8332 9.54214 15.8332 10.0013V15.0013C15.8332 15.4605 15.4598 15.8346 14.9998 15.8346H9.99984C9.54067 15.8346 9.1665 15.4605 9.1665 15.0013V10.0013Z" fill="white" fill-opacity="0.6"/>
</svg>
