<svg width="40" height="32" viewBox="0 0 40 32" fill="none" xmlns="http://www.w3.org/2000/svg">
<g clip-path="url(#clip0_1204_3066)">
<path d="M16.1506 14.3681C15.2855 13.5078 14.75 12.3164 14.75 11C14.75 9.68355 15.2855 8.49219 16.1506 7.63188C15.6526 7.38733 15.0923 7.25 14.5 7.25C12.4289 7.25 10.75 8.92893 10.75 11C10.75 13.0711 12.4289 14.75 14.5 14.75C15.0923 14.75 15.6526 14.6127 16.1506 14.3681Z" fill="url(#paint0_linear_1204_3066)"/>
<path d="M15.75 11C15.75 8.92893 17.4289 7.25 19.5 7.25C21.5711 7.25 23.25 8.92893 23.25 11C23.25 13.0711 21.5711 14.75 19.5 14.75C17.4289 14.75 15.75 13.0711 15.75 11Z" fill="url(#paint1_linear_1204_3066)"/>
<path d="M22.8494 7.63188C23.7145 8.49219 24.25 9.68355 24.25 11C24.25 12.3164 23.7145 13.5078 22.8494 14.3681C23.3474 14.6127 23.9077 14.75 24.5 14.75C26.5711 14.75 28.25 13.0711 28.25 11C28.25 8.92893 26.5711 7.25 24.5 7.25C23.9077 7.25 23.3474 7.38733 22.8494 7.63188Z" fill="url(#paint2_linear_1204_3066)"/>
<path d="M12.75 20C12.75 17.9289 14.4289 16.25 16.5 16.25H22.5C24.5711 16.25 26.25 17.9289 26.25 20C26.25 22.0711 24.5711 23.75 22.5 23.75H16.5C14.4289 23.75 12.75 22.0711 12.75 20Z" fill="url(#paint3_linear_1204_3066)"/>
<path d="M7.75 19C7.75 16.9289 9.42893 15.25 11.5 15.25H16.5C13.8766 15.25 11.75 17.3766 11.75 20C11.75 21.0249 12.0746 21.9739 12.6266 22.75H11.5C9.42893 22.75 7.75 21.0711 7.75 19Z" fill="url(#paint4_linear_1204_3066)"/>
<path d="M27.25 20C27.25 21.0249 26.9254 21.9739 26.3734 22.75H27.5C29.5711 22.75 31.25 21.0711 31.25 19C31.25 16.9289 29.5711 15.25 27.5 15.25H22.5C25.1234 15.25 27.25 17.3766 27.25 20Z" fill="url(#paint5_linear_1204_3066)"/>
</g>
<defs>
<linearGradient id="paint0_linear_1204_3066" x1="-4" y1="15.5" x2="11.5194" y2="37.6034" gradientUnits="userSpaceOnUse">
<stop stop-color="#EEFF00"/>
<stop offset="0.508129" stop-color="#FFAA00"/>
<stop offset="1" stop-color="#FF5E00"/>
</linearGradient>
<linearGradient id="paint1_linear_1204_3066" x1="-4" y1="15.5" x2="11.5194" y2="37.6034" gradientUnits="userSpaceOnUse">
<stop stop-color="#EEFF00"/>
<stop offset="0.508129" stop-color="#FFAA00"/>
<stop offset="1" stop-color="#FF5E00"/>
</linearGradient>
<linearGradient id="paint2_linear_1204_3066" x1="-4" y1="15.5" x2="11.5194" y2="37.6034" gradientUnits="userSpaceOnUse">
<stop stop-color="#EEFF00"/>
<stop offset="0.508129" stop-color="#FFAA00"/>
<stop offset="1" stop-color="#FF5E00"/>
</linearGradient>
<linearGradient id="paint3_linear_1204_3066" x1="-4" y1="15.5" x2="11.5194" y2="37.6034" gradientUnits="userSpaceOnUse">
<stop stop-color="#EEFF00"/>
<stop offset="0.508129" stop-color="#FFAA00"/>
<stop offset="1" stop-color="#FF5E00"/>
</linearGradient>
<linearGradient id="paint4_linear_1204_3066" x1="-4" y1="15.5" x2="11.5194" y2="37.6034" gradientUnits="userSpaceOnUse">
<stop stop-color="#EEFF00"/>
<stop offset="0.508129" stop-color="#FFAA00"/>
<stop offset="1" stop-color="#FF5E00"/>
</linearGradient>
<linearGradient id="paint5_linear_1204_3066" x1="-4" y1="15.5" x2="11.5194" y2="37.6034" gradientUnits="userSpaceOnUse">
<stop stop-color="#EEFF00"/>
<stop offset="0.508129" stop-color="#FFAA00"/>
<stop offset="1" stop-color="#FF5E00"/>
</linearGradient>
<clipPath id="clip0_1204_3066">
<rect width="24" height="24" fill="white" transform="translate(7.5 4)"/>
</clipPath>
</defs>
</svg>
