<svg width="40" height="32" viewBox="0 0 40 32" fill="none" xmlns="http://www.w3.org/2000/svg">
<path d="M20 4C26.6234 4 32 9.37664 32 16C32 22.6223 26.6234 28 20 28C13.3766 28 8 22.6223 8 16C8 9.37664 13.3766 4 20 4ZM20 5.44966C14.1766 5.44966 9.44966 10.1766 9.44966 16C9.44966 21.8223 14.1766 26.5503 20 26.5503C25.8234 26.5503 30.5503 21.8223 30.5503 16C30.5503 10.1766 25.8234 5.44966 20 5.44966Z" fill="white"/>
<path d="M20 7.22148C24.8451 7.22148 28.7785 11.1549 28.7785 16C28.7785 20.8451 24.8451 24.7785 20 24.7785C15.1549 24.7785 11.2214 20.8451 11.2214 16C11.2214 11.1549 15.1549 7.22148 20 7.22148ZM20.6077 10.472C20.5419 10.3707 20.4519 10.2875 20.3457 10.2298C20.2396 10.1722 20.1207 10.1421 20 10.1421C19.8792 10.1421 19.7603 10.1722 19.6542 10.2298C19.548 10.2875 19.458 10.3707 19.3922 10.472L17.7986 12.9181L14.9788 13.6784C14.8625 13.7099 14.7559 13.7699 14.6686 13.853C14.5814 13.9361 14.5162 14.0396 14.479 14.1542C14.4418 14.2687 14.4337 14.3908 14.4556 14.5093C14.4774 14.6278 14.5284 14.7389 14.604 14.8328L16.4381 17.105L16.2899 20.0215C16.2835 20.142 16.3073 20.2623 16.3592 20.3713C16.4111 20.4803 16.4895 20.5746 16.5871 20.6455C16.6848 20.7165 16.7986 20.7619 16.9183 20.7777C17.038 20.7934 17.1598 20.7789 17.2724 20.7356L20 19.694L22.7275 20.7356C22.8402 20.7786 22.9618 20.7929 23.0814 20.777C23.201 20.7612 23.3147 20.7157 23.4123 20.6448C23.5099 20.5739 23.5882 20.4797 23.6402 20.3709C23.6922 20.2621 23.7162 20.142 23.71 20.0215L23.5618 17.105L25.3959 14.8328C25.4721 14.7391 25.5236 14.6279 25.5457 14.5093C25.5678 14.3907 25.5599 14.2684 25.5226 14.1536C25.4854 14.0388 25.42 13.9352 25.3324 13.8522C25.2448 13.7692 25.1378 13.7094 25.0212 13.6784L22.2013 12.9181L20.6077 10.472Z" fill="white"/>
</svg>
