<svg width="40" height="32" viewBox="0 0 40 32" fill="none" xmlns="http://www.w3.org/2000/svg">
<path d="M20 4C26.6234 4 32 9.37664 32 16C32 22.6223 26.6234 28 20 28C13.3766 28 8 22.6223 8 16C8 9.37664 13.3766 4 20 4ZM20 5.44966C14.1766 5.44966 9.44966 10.1766 9.44966 16C9.44966 21.8223 14.1766 26.5503 20 26.5503C25.8234 26.5503 30.5503 21.8223 30.5503 16C30.5503 10.1766 25.8234 5.44966 20 5.44966Z" fill="url(#paint0_linear_1204_18643)"/>
<path d="M20 7.22168C24.8451 7.22168 28.7785 11.1551 28.7785 16.0002C28.7785 20.8453 24.8451 24.7787 20 24.7787C15.1549 24.7787 11.2214 20.8453 11.2214 16.0002C11.2214 11.1551 15.1549 7.22168 20 7.22168ZM20.6077 10.4722C20.5419 10.3709 20.4519 10.2877 20.3457 10.23C20.2396 10.1724 20.1207 10.1423 20 10.1423C19.8792 10.1423 19.7603 10.1724 19.6542 10.23C19.548 10.2877 19.458 10.3709 19.3922 10.4722L17.7986 12.9183L14.9788 13.6786C14.8625 13.7101 14.7559 13.7701 14.6686 13.8532C14.5814 13.9363 14.5162 14.0398 14.479 14.1544C14.4418 14.2689 14.4337 14.391 14.4556 14.5095C14.4774 14.628 14.5284 14.7391 14.604 14.833L16.4381 17.1052L16.2899 20.0217C16.2835 20.1422 16.3073 20.2625 16.3592 20.3715C16.4111 20.4805 16.4895 20.5748 16.5871 20.6457C16.6848 20.7167 16.7986 20.7621 16.9183 20.7779C17.038 20.7936 17.1598 20.7791 17.2724 20.7358L20 19.6942L22.7275 20.7358C22.8402 20.7788 22.9618 20.7931 23.0814 20.7772C23.201 20.7614 23.3147 20.7159 23.4123 20.645C23.5099 20.5741 23.5882 20.4799 23.6402 20.3711C23.6922 20.2622 23.7162 20.1421 23.71 20.0217L23.5618 17.1052L25.3959 14.833C25.4721 14.7393 25.5236 14.6281 25.5457 14.5095C25.5678 14.3909 25.5599 14.2686 25.5226 14.1538C25.4854 14.039 25.42 13.9354 25.3324 13.8524C25.2448 13.7694 25.1378 13.7096 25.0212 13.6786L22.2013 12.9183L20.6077 10.4722Z" fill="url(#paint1_linear_1204_18643)"/>
<defs>
<linearGradient id="paint0_linear_1204_18643" x1="-4" y1="16" x2="20" y2="40" gradientUnits="userSpaceOnUse">
<stop stop-color="#EEFF00"/>
<stop offset="0.508129" stop-color="#FFAA00"/>
<stop offset="1" stop-color="#FF5E00"/>
</linearGradient>
<linearGradient id="paint1_linear_1204_18643" x1="2.44291" y1="16.0002" x2="20" y2="33.5573" gradientUnits="userSpaceOnUse">
<stop stop-color="#EEFF00"/>
<stop offset="0.508129" stop-color="#FFAA00"/>
<stop offset="1" stop-color="#FF5E00"/>
</linearGradient>
</defs>
</svg>
