<svg width="42" height="32" viewBox="0 0 42 32" fill="none" xmlns="http://www.w3.org/2000/svg">
<path d="M20.733 11.9624C20.822 11.6792 21.178 11.6792 21.267 11.9624C21.4996 12.7017 22.1766 13.2248 22.965 13.2248C23.0418 13.2248 23.091 13.2476 23.1277 13.2769C23.1695 13.3103 23.2093 13.3649 23.232 13.4372C23.2779 13.5831 23.2384 13.718 23.122 13.8054C22.4993 14.2727 22.2501 15.0877 22.4815 15.8233C22.5324 15.9852 22.4748 16.114 22.3714 16.1915C22.3185 16.2312 22.2633 16.2485 22.2174 16.2499C22.1777 16.2512 22.1245 16.2419 22.0574 16.1915C21.4286 15.7196 20.5714 15.7196 19.9426 16.1915C19.8755 16.2419 19.8223 16.2512 19.7826 16.2499C19.7367 16.2485 19.6815 16.2312 19.6286 16.1915C19.5252 16.114 19.4676 15.9852 19.5185 15.8233C19.7499 15.0877 19.5007 14.2727 18.878 13.8054C18.7616 13.718 18.7221 13.5831 18.768 13.4372C18.7907 13.3649 18.8305 13.3103 18.8723 13.2769C18.909 13.2476 18.9582 13.2248 19.035 13.2248C19.8234 13.2248 20.5004 12.7017 20.733 11.9624Z" fill="url(#paint0_linear_1204_1846)"/>
<path fill-rule="evenodd" clip-rule="evenodd" d="M17.2233 5.53146C18.0908 5.24958 19.132 5.24975 20.8383 5.25002H21.1619C22.8682 5.24975 23.9094 5.24958 24.777 5.53146C26.5275 6.10024 27.8999 7.47267 28.4687 9.22319L28.4773 9.25003H28.7695C32.475 9.25003 34.0668 13.9521 31.1233 16.203L31.1126 16.2112L28.6513 17.9576C28.5595 18.0227 28.4646 18.0832 28.3668 18.1388C28.3562 18.1667 28.3453 18.1945 28.3341 18.2224C28.0786 18.857 27.5799 19.6184 27.1003 20.1063C26.3187 20.9012 25.5098 21.2538 24.2181 21.8167L24.1323 21.8541C23.5759 22.0967 23.0134 22.3167 22.491 22.4772C22.2436 22.5532 21.9939 22.6196 21.7501 22.6678V25.25H25.0001C25.4143 25.25 25.7501 25.5858 25.7501 26C25.7501 26.4142 25.4143 26.75 25.0001 26.75H17.0001C16.5859 26.75 16.2501 26.4142 16.2501 26C16.2501 25.5858 16.5859 25.25 17.0001 25.25H20.2501V22.6678C20.0063 22.6196 19.7566 22.5532 19.5092 22.4772C18.9869 22.3167 18.4243 22.0967 17.8679 21.8541L17.7821 21.8167C16.4904 21.2538 15.6816 20.9012 14.8999 20.1063C14.4203 19.6184 13.9216 18.857 13.6661 18.2224C13.6546 18.1938 13.6434 18.1651 13.6325 18.1365C13.5368 18.0834 13.444 18.025 13.3546 17.9615L10.8877 16.2112L10.8771 16.203C7.93353 13.9521 9.52533 9.25003 13.2309 9.25003H13.5229L13.5315 9.22319C14.1003 7.47267 15.4727 6.10024 17.2233 5.53146ZM13.2832 10.75H13.2309C10.964 10.75 9.98777 13.6213 11.7782 15.0038L13.2701 16.0623C13.25 15.5801 13.25 15.0411 13.2501 14.416L13.2501 12.9161C13.2501 12.0369 13.25 11.3351 13.2832 10.75ZM28.7301 16.0624L30.2221 15.0038C32.0126 13.6213 31.0364 10.75 28.7695 10.75H28.717C28.7502 11.3351 28.7501 12.0369 28.7501 12.916L28.7501 14.4169C28.7502 15.0416 28.7503 15.5804 28.7301 16.0624ZM22.6979 11.5124C22.1685 9.82925 19.8315 9.82925 19.3021 11.5124C19.258 11.6525 19.1417 11.7248 19.035 11.7248C17.2595 11.7248 16.6352 13.9975 17.9776 15.0051C18.0791 15.0812 18.1329 15.2295 18.0877 15.3733C17.8293 16.1946 18.1618 16.9661 18.7282 17.3912C19.2981 17.819 20.141 17.9181 20.843 17.3912C20.9383 17.3197 21.0617 17.3197 21.157 17.3912C21.859 17.9181 22.7019 17.819 23.2718 17.3912C23.8382 16.9661 24.1707 16.1946 23.9123 15.3733C23.8671 15.2295 23.9209 15.0812 24.0224 15.0051C25.3648 13.9975 24.7405 11.7248 22.965 11.7248C22.8583 11.7248 22.742 11.6525 22.6979 11.5124Z" fill="url(#paint1_linear_1204_1846)"/>
<defs>
<linearGradient id="paint0_linear_1204_1846" x1="-2.3034" y1="16" x2="19.1271" y2="39.2282" gradientUnits="userSpaceOnUse">
<stop stop-color="#EEFF00"/>
<stop offset="0.508129" stop-color="#FFAA00"/>
<stop offset="1" stop-color="#FF5E00"/>
</linearGradient>
<linearGradient id="paint1_linear_1204_1846" x1="-2.3034" y1="16" x2="19.1271" y2="39.2282" gradientUnits="userSpaceOnUse">
<stop stop-color="#EEFF00"/>
<stop offset="0.508129" stop-color="#FFAA00"/>
<stop offset="1" stop-color="#FF5E00"/>
</linearGradient>
</defs>
</svg>
