<svg width="40" height="32" viewBox="0 0 40 32" fill="none" xmlns="http://www.w3.org/2000/svg">
<path fill-rule="evenodd" clip-rule="evenodd" d="M20.7148 6.30059L28.4238 14.1846C28.7898 14.5606 28.9998 15.0846 28.9998 15.6236V23.9996C28.9998 25.1026 28.1528 25.9996 27.1118 25.9996H23.9998V16.9996C23.9998 16.4476 23.5528 15.9996 22.9998 15.9996H16.9998C16.4468 15.9996 15.9998 16.4476 15.9998 16.9996V25.9996H12.8888C11.8478 25.9996 10.9998 25.1026 10.9998 23.9996V15.6236C10.9998 15.0846 11.2098 14.5606 11.5748 14.1856L19.2848 6.30059C19.6618 5.91559 20.3378 5.91559 20.7148 6.30059ZM22 25H18V18H22V25Z" fill="white"/>
</svg>
