<svg width="16" height="16" viewBox="0 0 16 16" fill="none" xmlns="http://www.w3.org/2000/svg">
<path fill-rule="evenodd" clip-rule="evenodd" d="M8.00065 5.99935C7.63265 5.99935 7.33398 5.70068 7.33398 5.33268C7.33398 4.96468 7.63265 4.66602 8.00065 4.66602C8.36865 4.66602 8.66732 4.96468 8.66732 5.33268C8.66732 5.70068 8.36865 5.99935 8.00065 5.99935ZM8.66732 10.666C8.66732 11.034 8.36865 11.3327 8.00065 11.3327C7.63265 11.3327 7.33398 11.034 7.33398 10.666V7.33268C7.33398 6.96468 7.63265 6.66602 8.00065 6.66602C8.36865 6.66602 8.66732 6.96468 8.66732 7.33268V10.666ZM8.00065 1.33301C4.31865 1.33301 1.33398 4.31767 1.33398 7.99967C1.33398 11.6817 4.31865 14.6663 8.00065 14.6663C11.682 14.6663 14.6673 11.6817 14.6673 7.99967C14.6673 4.31767 11.682 1.33301 8.00065 1.33301Z" fill="white"/>
</svg>
