<svg width="20" height="20" viewBox="0 0 20 20" fill="none" xmlns="http://www.w3.org/2000/svg">
<path fill-rule="evenodd" clip-rule="evenodd" d="M17.5167 9.41649C17.8617 9.41649 18.1417 9.69649 18.1417 10.0415C18.1417 12.1105 17.3467 14.1795 15.7667 15.7585V15.7595C12.5892 18.9275 7.4442 18.9275 4.2667 15.7595V15.7585C3.71887 15.2084 3.25143 14.5837 2.8782 13.903C2.83841 13.8312 2.81315 13.7523 2.80387 13.6707C2.79458 13.5891 2.80145 13.5065 2.82409 13.4276C2.84672 13.3487 2.88468 13.2751 2.93579 13.2108C2.98689 13.1466 3.05015 13.093 3.12195 13.0532C3.19375 13.0135 3.27269 12.9882 3.35425 12.9789C3.43581 12.9696 3.5184 12.9765 3.59731 12.9991C3.67622 13.0218 3.74989 13.0597 3.81413 13.1108C3.87837 13.1619 3.93191 13.2252 3.9717 13.297C4.28821 13.8759 4.68497 14.4072 5.1502 14.875C7.8397 17.5565 12.1942 17.556 14.8837 14.875C15.5204 14.2415 16.0255 13.4883 16.3701 12.6589C16.7147 11.8295 16.892 10.9402 16.8917 10.042C16.8917 9.69699 17.1717 9.41649 17.5167 9.41649ZM14.8837 5.15049C12.1942 2.46949 7.8397 2.46899 5.1502 5.15049C3.8377 6.46299 3.1722 8.18049 3.1417 9.90299C3.14023 9.98507 3.1226 10.0661 3.08982 10.1413C3.05705 10.2166 3.00977 10.2846 2.95069 10.3416C2.89161 10.3986 2.82188 10.4434 2.74549 10.4735C2.66909 10.5035 2.58753 10.5182 2.50545 10.5167C2.42338 10.5153 2.3424 10.4976 2.26713 10.4649C2.19187 10.4321 2.1238 10.3848 2.06681 10.3257C2.00981 10.2666 1.96502 10.1969 1.93497 10.1205C1.90493 10.0441 1.89023 9.96257 1.8917 9.88049C1.9282 7.85249 2.7127 5.82049 4.2667 4.26649V4.26599C7.4447 1.09749 12.5892 1.09749 15.7667 4.26599C16.3146 4.81623 16.782 5.44107 17.1552 6.12199C17.195 6.19379 17.2203 6.27273 17.2295 6.35429C17.2388 6.43585 17.232 6.51844 17.2093 6.59735C17.1867 6.67626 17.1487 6.74993 17.0976 6.81417C17.0465 6.87841 16.9833 6.93195 16.9115 6.97174C16.8397 7.01153 16.7607 7.03679 16.6792 7.04608C16.5976 7.05536 16.515 7.04849 16.4361 7.02586C16.3572 7.00322 16.2835 6.96527 16.2193 6.91416C16.155 6.86305 16.1015 6.79979 16.0617 6.72799C15.7453 6.14929 15.3487 5.6182 14.8837 5.15049Z" fill="white"/>
<path fill-rule="evenodd" clip-rule="evenodd" d="M17.05 2.48349C17.395 2.48349 17.675 2.76349 17.675 3.10849V6.42499C17.675 6.76999 17.395 7.04999 17.05 7.04999H13.7335C13.5677 7.04999 13.4088 6.98414 13.2916 6.86693C13.1743 6.74972 13.1085 6.59075 13.1085 6.42499C13.1085 6.25923 13.1743 6.10026 13.2916 5.98305C13.4088 5.86584 13.5677 5.79999 13.7335 5.79999H16.425V3.10849C16.425 2.76349 16.705 2.48349 17.05 2.48349ZM2.375 13.6C2.375 13.255 2.655 12.975 3 12.975H6.3165C6.48226 12.975 6.64123 13.0408 6.75844 13.158C6.87565 13.2753 6.9415 13.4342 6.9415 13.6C6.9415 13.7658 6.87565 13.9247 6.75844 14.0419C6.64123 14.1591 6.48226 14.225 6.3165 14.225H3.625V16.9165C3.625 17.0823 3.55915 17.2412 3.44194 17.3584C3.32473 17.4756 3.16576 17.5415 3 17.5415C2.83424 17.5415 2.67527 17.4756 2.55806 17.3584C2.44085 17.2412 2.375 17.0823 2.375 16.9165V13.6Z" fill="white"/>
</svg>
