<svg width="32" height="32" viewBox="0 0 32 32" fill="none" xmlns="http://www.w3.org/2000/svg">
<rect width="32" height="32" rx="12" fill="#E0E0FF" fill-opacity="0.02"/>
<g clip-path="url(#clip0_1204_24111)">
<path d="M23.5206 17.7533L22.05 16.6033C22.0686 16.426 22.0846 16.2187 22.0846 15.9993C22.0846 15.78 22.0693 15.5727 22.05 15.3953L23.522 14.2447C23.7953 14.0287 23.87 13.6453 23.696 13.326L22.1666 10.68C22.0033 10.3813 21.6453 10.228 21.282 10.362L19.5466 11.0587C19.214 10.8187 18.8653 10.616 18.5046 10.454L18.2406 8.61334C18.1973 8.264 17.8933 8 17.534 8H14.4673C14.108 8 13.8046 8.264 13.762 8.608L13.4973 10.4553C13.148 10.6127 12.8046 10.8127 12.4573 11.06L10.7173 10.3613C10.3913 10.2353 10.0013 10.3767 9.83927 10.674L8.30796 13.3233C8.1273 13.6287 8.20196 14.0253 8.4813 14.2467L9.95196 15.3967C9.92861 15.6213 9.9173 15.8167 9.9173 16C9.9173 16.1834 9.92865 16.3787 9.95196 16.604L8.47996 17.7547C8.20661 17.9713 8.13261 18.3547 8.30661 18.6733L9.83596 21.3193C9.9993 21.6173 10.354 21.772 10.7206 21.6373L12.456 20.9407C12.788 21.18 13.1366 21.3827 13.4973 21.5453L13.7613 23.3853C13.8046 23.736 14.108 24 14.468 24H17.5346C17.894 24 18.198 23.736 18.2406 23.392L18.5053 21.5453C18.8546 21.3873 19.1973 21.188 19.5453 20.94L21.2853 21.6387C21.3693 21.6713 21.4566 21.688 21.5466 21.688C21.8053 21.688 22.0433 21.5467 22.1633 21.3267L23.6993 18.6667C23.87 18.3547 23.7953 17.9713 23.5206 17.7533ZM16.0006 18.6667C14.53 18.6667 13.334 17.4707 13.334 16C13.334 14.5293 14.53 13.3333 16.0006 13.3333C17.4713 13.3333 18.6673 14.5293 18.6673 16C18.6673 17.4707 17.4713 18.6667 16.0006 18.6667Z" fill="white" fill-opacity="0.6"/>
</g>
<defs>
<clipPath id="clip0_1204_24111">
<rect width="16" height="16" fill="white" transform="translate(8 8)"/>
</clipPath>
</defs>
</svg>
