<svg width="40" height="32" viewBox="0 0 40 32" fill="none" xmlns="http://www.w3.org/2000/svg">
<path d="M28.8486 7.34392V7.3411C28.8486 5.99992 28.1106 4.94922 27.1683 4.94922C26.2541 4.94922 25.5161 5.96675 25.4883 7.26522L25.4897 7.27369H24.4541C24.4294 5.96498 23.7024 4.94922 22.7759 4.94922C21.8618 4.94922 21.1241 5.9664 21.0959 7.26522C21.0959 7.26804 21.0977 7.27051 21.0977 7.27369H20.0618C20.0371 5.96498 19.31 4.94922 18.3835 4.94922C17.4694 4.94922 16.7318 5.9664 16.7035 7.26522L16.705 7.27369H15.6694C15.6447 5.96498 14.9173 4.94922 13.9912 4.94922C13.0771 4.94922 12.3391 5.9664 12.3112 7.26522C12.3112 7.26804 12.3126 7.27051 12.3126 7.27369H11.7518C10.2659 7.27369 9.05884 8.48075 9.05884 9.96663V11.4878H30.9412V9.96663C30.9412 8.68828 30.0468 7.61816 28.8486 7.34392ZM27.1683 5.6551C27.6835 5.6551 28.117 6.39028 28.1388 7.27369H26.1948C26.2153 6.39557 26.6607 5.6551 27.1683 5.6551ZM22.7755 5.6551C23.2908 5.6551 23.725 6.39028 23.7461 7.27369H21.8021C21.8233 6.39557 22.268 5.6551 22.7755 5.6551ZM18.3832 5.6551C18.8985 5.6551 19.3322 6.39028 19.3538 7.27369H17.4098C17.4306 6.39557 17.8757 5.6551 18.3832 5.6551ZM13.9908 5.6551C14.5061 5.6551 14.9395 6.39028 14.9614 7.27369H13.0174C13.0379 6.39557 13.4833 5.6551 13.9908 5.6551ZM13.7812 10.5419C13.1388 10.5419 12.6165 10.0196 12.6165 9.38075C12.6165 8.7384 13.1388 8.21957 13.7812 8.21957C14.1165 8.21957 14.4172 8.36463 14.6297 8.59369C14.4567 8.85875 14.2337 9.0271 13.9908 9.0271C13.8972 9.0271 13.8075 9.06429 13.7413 9.13048C13.6751 9.19666 13.6379 9.28644 13.6379 9.38004C13.6379 9.47365 13.6751 9.56342 13.7413 9.62961C13.8075 9.6958 13.8972 9.73298 13.9908 9.73298C14.3445 9.73298 14.6692 9.58475 14.9371 9.32922C14.9378 9.34687 14.9424 9.3631 14.9424 9.38075C14.9424 10.0196 14.42 10.5419 13.7812 10.5419ZM18.1718 10.5419C17.5294 10.5419 17.0071 10.0196 17.0071 9.38075C17.0071 8.7384 17.5294 8.21957 18.1718 8.21957C18.3317 8.21963 18.4898 8.25291 18.6362 8.31731C18.7826 8.38172 18.9139 8.47583 19.022 8.59369C18.8491 8.8591 18.626 9.0271 18.3832 9.0271C18.2896 9.0271 18.1998 9.06429 18.1336 9.13048C18.0674 9.19666 18.0303 9.28644 18.0303 9.38004C18.0303 9.47365 18.0674 9.56342 18.1336 9.62961C18.1998 9.6958 18.2896 9.73298 18.3832 9.73298C18.7361 9.73298 19.0605 9.58545 19.328 9.33063C19.3287 9.34792 19.333 9.36345 19.333 9.38075C19.333 10.0196 18.8141 10.5419 18.1718 10.5419ZM22.5659 10.5419C21.9235 10.5419 21.4012 10.0196 21.4012 9.38075C21.4012 8.7384 21.9235 8.21957 22.5659 8.21957C22.9012 8.21957 23.2022 8.36498 23.4144 8.59369C23.2414 8.85875 23.0187 9.0271 22.7755 9.0271C22.6819 9.0271 22.5922 9.06429 22.526 9.13048C22.4598 9.19666 22.4226 9.28644 22.4226 9.38004C22.4226 9.47365 22.4598 9.56342 22.526 9.62961C22.5922 9.6958 22.6819 9.73298 22.7755 9.73298C23.1292 9.73298 23.4539 9.58475 23.7218 9.32957C23.7225 9.34687 23.7271 9.3631 23.7271 9.38075C23.7271 10.0196 23.2047 10.5419 22.5659 10.5419ZM26.9565 10.5419C26.3141 10.5419 25.7918 10.0196 25.7918 9.38075C25.7918 8.7384 26.3141 8.21957 26.9565 8.21957C27.1165 8.21962 27.2747 8.25294 27.4211 8.3174C27.5676 8.38187 27.699 8.47608 27.8071 8.59404C27.6341 8.85875 27.4111 9.0271 27.1683 9.0271C27.0746 9.0271 26.9849 9.06429 26.9187 9.13048C26.8525 9.19666 26.8153 9.28644 26.8153 9.38004C26.8153 9.47365 26.8525 9.56342 26.9187 9.62961C26.9849 9.6958 27.0746 9.73298 27.1683 9.73298C27.5212 9.73298 27.8452 9.58581 28.1127 9.33098C28.1134 9.34793 28.1177 9.36381 28.1177 9.3804C28.1177 10.0192 27.5988 10.5419 26.9565 10.5419ZM9.05884 12.1937V24.3525C9.05884 25.8419 10.2659 27.049 11.7518 27.049H28.2447C28.9599 27.049 29.6457 26.7649 30.1514 26.2592C30.6571 25.7535 30.9412 25.0677 30.9412 24.3525V12.1937H9.05884ZM14.3272 24.4358C14.3272 24.7055 14.1084 24.9243 13.8384 24.9243H12.1372C11.8672 24.9243 11.6484 24.7055 11.6484 24.4358V22.7343C11.6484 22.4643 11.8672 22.2455 12.1372 22.2455H13.8384C14.1084 22.2455 14.3272 22.4643 14.3272 22.7343V24.4358ZM14.3272 20.204C14.3272 20.474 14.1084 20.6929 13.8384 20.6929H12.1372C11.8672 20.6929 11.6484 20.474 11.6484 20.204V18.5029C11.6484 18.2329 11.8672 18.014 12.1372 18.014H13.8384C14.1084 18.014 14.3272 18.2329 14.3272 18.5029V20.204ZM19.0015 24.4358C19.0015 24.7055 18.7827 24.9243 18.5127 24.9243H16.8115C16.5415 24.9243 16.3227 24.7055 16.3227 24.4358V22.7343C16.3227 22.4643 16.5415 22.2455 16.8115 22.2455H18.5127C18.7827 22.2455 19.0015 22.4643 19.0015 22.7343V24.4358ZM19.0015 20.204C19.0015 20.474 18.7827 20.6929 18.5127 20.6929H16.8115C16.5415 20.6929 16.3227 20.474 16.3227 20.204V18.5029C16.3227 18.2329 16.5415 18.014 16.8115 18.014H18.5127C18.7827 18.014 19.0015 18.2329 19.0015 18.5029V20.204ZM23.6755 24.4358C23.6755 24.7055 23.4567 24.9243 23.1871 24.9243H21.4859C21.2159 24.9243 20.9971 24.7055 20.9971 24.4358V22.7343C20.9971 22.4643 21.2159 22.2455 21.4855 22.2455H23.1867C23.4567 22.2455 23.6755 22.4643 23.6755 22.7343V24.4358ZM23.6755 20.204C23.6755 20.474 23.4567 20.6929 23.1871 20.6929H21.4859C21.2159 20.6929 20.9971 20.474 20.9971 20.204V18.5029C20.9971 18.2329 21.2159 18.014 21.4855 18.014H23.1867C23.4567 18.014 23.6755 18.2329 23.6755 18.5029V20.204ZM23.6755 15.9723C23.6755 16.2423 23.4567 16.4611 23.1871 16.4611H21.4859C21.2159 16.4611 20.9971 16.2423 20.9971 15.9726V14.2715C20.9971 14.0015 21.2159 13.7826 21.4855 13.7826H23.1867C23.4567 13.7826 23.6755 14.0015 23.6755 14.2711V15.9723ZM28.3499 20.204C28.3499 20.474 28.1311 20.6929 27.8614 20.6929H26.1602C25.8902 20.6929 25.6714 20.474 25.6714 20.204V18.5029C25.6714 18.2329 25.8902 18.014 26.1599 18.014H27.8611C28.1311 18.014 28.3499 18.2329 28.3499 18.5029V20.204ZM28.3499 15.9723C28.3499 16.2423 28.1311 16.4611 27.8614 16.4611H26.1602C25.8902 16.4611 25.6714 16.2423 25.6714 15.9726V14.2715C25.6714 14.0015 25.8902 13.7826 26.1599 13.7826H27.8611C28.1311 13.7826 28.3499 14.0015 28.3499 14.2711V15.9723Z" fill="white"/>
</svg>
