<svg width="188" height="168" viewBox="0 0 188 168" fill="none" xmlns="http://www.w3.org/2000/svg">
<g filter="url(#filter0_f_1411_24262)">
<path d="M64 74C64 90.5685 77.4315 104 94 104C110.569 104 124 90.5685 124 74C124 57.4315 110.569 44 94 44C77.4315 44 64 57.4315 64 74Z" fill="#0088CC"/>
<path d="M79.1873 73.4531C87.2404 69.9445 92.6103 67.6314 95.2972 66.5138C102.969 63.323 104.563 62.7687 105.602 62.7502C105.83 62.7463 106.341 62.803 106.672 63.0715C106.952 63.2983 107.029 63.6046 107.065 63.8196C107.102 64.0346 107.148 64.5244 107.112 64.9071C106.696 69.2752 104.897 79.8753 103.982 84.7676C103.595 86.8377 102.832 87.5318 102.094 87.5997C100.49 87.7474 99.2717 86.5396 97.718 85.5211C95.2867 83.9273 93.9132 82.9352 91.5532 81.38C88.8258 79.5827 90.5938 78.5949 92.1482 76.9805C92.5549 76.558 99.6231 70.129 99.7599 69.5458C99.777 69.4728 99.7929 69.2009 99.6313 69.0574C99.4698 68.9138 99.2314 68.9629 99.0594 69.002C98.8155 69.0573 94.9315 71.6245 87.4073 76.7036C86.3048 77.4606 85.3062 77.8295 84.4115 77.8101C83.4252 77.7888 81.5279 77.2524 80.1175 76.794C78.3875 76.2316 77.0125 75.9343 77.1323 74.9793C77.1946 74.4818 77.8797 73.9731 79.1873 73.4531Z" fill="white"/>
</g>
<path d="M64 74C64 90.5685 77.4315 104 94 104C110.569 104 124 90.5685 124 74C124 57.4315 110.569 44 94 44C77.4315 44 64 57.4315 64 74Z" fill="#0088CC"/>
<path d="M79.1873 73.4531C87.2404 69.9445 92.6103 67.6314 95.2972 66.5138C102.969 63.323 104.563 62.7687 105.602 62.7502C105.83 62.7463 106.341 62.803 106.672 63.0715C106.952 63.2983 107.029 63.6046 107.065 63.8196C107.102 64.0346 107.148 64.5244 107.112 64.9071C106.696 69.2752 104.897 79.8753 103.982 84.7676C103.595 86.8377 102.832 87.5318 102.094 87.5997C100.49 87.7474 99.2717 86.5396 97.718 85.5211C95.2867 83.9273 93.9132 82.9352 91.5532 81.38C88.8258 79.5827 90.5938 78.5949 92.1482 76.9805C92.5549 76.558 99.6231 70.129 99.7599 69.5458C99.777 69.4728 99.7929 69.2009 99.6313 69.0574C99.4698 68.9138 99.2314 68.9629 99.0594 69.002C98.8155 69.0573 94.9315 71.6245 87.4073 76.7036C86.3048 77.4606 85.3062 77.8295 84.4115 77.8101C83.4252 77.7888 81.5279 77.2524 80.1175 76.794C78.3875 76.2316 77.0125 75.9343 77.1323 74.9793C77.1946 74.4818 77.8797 73.9731 79.1873 73.4531Z" fill="white"/>
<defs>
<filter id="filter0_f_1411_24262" x="0" y="-20" width="188" height="188" filterUnits="userSpaceOnUse" color-interpolation-filters="sRGB">
<feFlood flood-opacity="0" result="BackgroundImageFix"/>
<feBlend mode="normal" in="SourceGraphic" in2="BackgroundImageFix" result="shape"/>
<feGaussianBlur stdDeviation="32" result="effect1_foregroundBlur_1411_24262"/>
</filter>
</defs>
</svg>
