<svg width="16" height="16" viewBox="0 0 16 16" fill="none" xmlns="http://www.w3.org/2000/svg">
<path d="M12.6629 3.09493C12.2541 2.96606 11.7947 2.9035 11.2639 2.87075C10.6572 2.83331 9.91995 2.83331 9.01542 2.83331H6.97374C5.90482 2.83331 5.06684 2.83331 4.39739 2.89696C3.71502 2.96184 3.15628 3.09636 2.66374 3.39819C2.14794 3.71427 1.71427 4.14794 1.39819 4.66373C1.387 4.68201 1.37603 4.70037 1.36529 4.71883C1.41682 3.75674 1.55141 3.11953 1.90295 2.61509C2.08691 2.35111 2.30959 2.11897 2.5628 1.92717C3.34683 1.33331 4.46523 1.33331 6.70203 1.33331H10.2812C11.406 1.33331 11.9684 1.33331 12.3178 1.69761C12.5862 1.9774 12.6485 2.38816 12.6629 3.09493Z" fill="white" fill-opacity="0.6"/>
<path d="M1.82445 4.92498C1.33325 5.72655 1.33325 6.81769 1.33325 8.99998C1.33325 11.1823 1.33325 12.2734 1.82445 13.075C2.0993 13.5235 2.47641 13.9006 2.92492 14.1754C3.72649 14.6666 4.81763 14.6666 6.99992 14.6666H8.99992C11.1822 14.6666 12.2733 14.6666 13.0749 14.1754C13.5234 13.9006 13.9005 13.5235 14.1754 13.075C14.498 12.5485 14.6087 11.8972 14.6467 10.8939H10.4242C9.14392 10.8939 8.10604 9.85605 8.10604 8.57575C8.10604 7.29545 9.14392 6.25757 10.4242 6.25757H14.585C14.5182 5.7058 14.3966 5.28602 14.1754 4.92498C13.9005 4.47647 13.5234 4.09936 13.0749 3.82451C12.9472 3.74627 12.8122 3.68049 12.6666 3.62519C11.898 3.33331 10.8346 3.33331 8.99992 3.33331H6.99992C4.81763 3.33331 3.72649 3.33331 2.92492 3.82451C2.47641 4.09936 2.0993 4.47647 1.82445 4.92498Z" fill="white" fill-opacity="0.6"/>
<path fill-rule="evenodd" clip-rule="evenodd" d="M14.6518 7.25757H10.4242C9.69621 7.25757 9.10604 7.84774 9.10604 8.57575C9.10604 9.30376 9.69621 9.89393 10.4242 9.89393H14.665C14.6666 9.61782 14.6666 9.32068 14.6666 8.99998C14.6666 8.32182 14.6666 7.74904 14.6518 7.25757ZM10.4242 8.07575C10.1481 8.07575 9.92422 8.29961 9.92422 8.57575C9.92422 8.85189 10.1481 9.07575 10.4242 9.07575H12.2424C12.5185 9.07575 12.7424 8.85189 12.7424 8.57575C12.7424 8.29961 12.5185 8.07575 12.2424 8.07575H10.4242Z" fill="white" fill-opacity="0.6"/>
</svg>
